#!OML:ASF I:\Actors\actors\Patient Classification 1\Patient 1\Session 1\Subject1.ASF
:FULLY-SPECIFIED
:DEGREES
717
root 0.0187712 17.588 7.8935 7.6573 -3.96277 -9.01627
lowerback 4.74042 4.43838 4.26718
upperback -8.53491 6.47796 0.0360514
thorax -11.3632 2.76574 -3.24404
lowerneck -14.7395 0.432278 4.84309
upperneck 33.7403 -1.6259 2.46176
head 13.9728 0.292779 -0.108472
rclavicle -9.44227e-015 1.59028e-014
rhumerus 3.08768 48.2981 -94.0848
rradius 78.1999
rwrist -2.124
rhand -14.3158 -56.5696
rfingers 7.12502
rthumb 11.8246 273.784
lclavicle -9.44227e-015 1.59028e-014
lhumerus -25.0808 -13.9706 92.3566
lradius 81.4072
lwrist 2.63768
lhand -29.8727 -10.4612
lfingers 7.12502
lthumb -3.1945 19.4946
rfemur -0.975876 23.3637 25.584
rtibia 1.44959
rfoot -11.4427 -21.883
rtoes -0.0954161
lfemur 8.64039 -40.4061 -17.0823
ltibia -3.87384
lfoot -16.7537 49.0903
ltoes 8.96666
718
root 0.0202948 17.5844 7.901 7.54091 -3.90356 -8.96054
lowerback 4.6563 4.35597 4.23432
upperback -8.52696 6.36394 0.101799
thorax -11.3228 2.71882 -3.13284
lowerneck -14.6821 0.566384 5.03542
upperneck 33.6502 -1.42896 2.32268
head 13.9202 0.380575 -0.167047
rclavicle -2.38542e-014 1.82882e-014
rhumerus 2.00338 49.3865 -94.6754
rradius 75.0661
rwrist -5.93563
rhand -8.31385 -60.4468
rfingers 7.12502
rthumb 17.6068 270.33
lclavicle -2.38542e-014 1.82882e-014
lhumerus -25.1765 -14.0149 92.4501
lradius 81.5732
lwrist 2.61241
lhand -29.8516 -10.4204
lfingers 7.12502
lthumb -3.17411 19.5357
rfemur -0.812408 23.441 25.5963
rtibia 1.4842
rfoot -11.5266 -22.0283
rtoes -0.225572
lfemur 8.73222 -40.1834 -17.1739
ltibia -3.86868
lfoot -16.5152 48.8333
ltoes 8.55756
719
root 0.0198369 17.5835 7.90749 7.38657 -4.06957 -8.90711
lowerback 4.66317 4.36103 4.14501
upperback -8.50327 6.36521 0.150475
thorax -11.3146 2.73011 -3.03158
lowerneck -14.601 0.643824 5.32589
upperneck 33.3325 -1.3033 2.08769
head 13.76 0.429467 -0.294034
rclavicle -1.35174e-014 1.59028e-015
rhumerus 1.02472 50.4214 -95.2107
rradius 71.9537
rwrist -12.2481
rhand -3.70708 -63.9924
rfingers 7.12502
rthumb 22.0352 92.7571
lclavicle -1.35174e-014 1.59028e-015
lhumerus -25.264 -14.1926 92.5347
lradius 81.7758
lwrist 2.48209
lhand -29.7125 -10.1529
lfingers 7.12502
lthumb -3.03985 19.8052
rfemur -0.630229 23.4673 25.6037
rtibia 1.53176
rfoot -11.4688 -21.9271
rtoes -0.566355
lfemur 9.04701 -40.0668 -17.468
ltibia -3.87592
lfoot -16.6188 48.8575
ltoes 8.45318
720
root 0.018854 17.5811 7.91415 7.35447 -4.24917 -8.86691
lowerback 4.56177 4.42299 4.05121
upperback -8.51121 6.43446 0.158157
thorax -11.2673 2.77436 -2.97164
lowerneck -14.6766 0.614026 5.2157
upperneck 33.0631 -1.40907 2.36739
head 13.6617 0.400212 -0.181789
rclavicle -4.59193e-014 -7.15625e-015
rhumerus 0.0323218 51.6913 -95.6145
rradius 69.2415
rwrist -20.9838
rhand -2.77733 -66.362
rfingers 7.12502
rthumb 22.9276 95.0187
lclavicle -4.59193e-014 -7.15625e-015
lhumerus -25.2612 -14.4957 92.6245
lradius 81.9167
lwrist 2.17097
lhand -29.363 -9.57094
lfingers 7.12502
lthumb -2.70229 20.3917
rfemur -0.559985 23.4989 25.579
rtibia 1.51247
rfoot -11.3911 -21.8129
rtoes -0.89984
lfemur 9.24851 -40.0445 -17.6778
ltibia -3.91138
lfoot -16.7464 48.9965
ltoes 8.50385
721
root 0.0188996 17.578 7.92159 7.39098 -4.32241 -8.83638
lowerback 4.42108 4.5227 3.9829
upperback -8.53236 6.55137 0.115439
thorax -11.1992 2.83788 -2.98199
lowerneck -14.8948 0.512991 5.00044
upperneck 32.9012 -1.64835 2.78188
head 13.6441 0.323111 -0.0182686
rclavicle 2.98177e-015 2.22639e-014
rhumerus -1.57684 52.9073 -96.3508
rradius 68.226
rwrist -25.4383
rhand -9.37888 -68.6489
rfingers 7.12502
rthumb 16.5817 97.9604
lclavicle 2.98177e-015 2.22639e-014
lhumerus -25.1711 -14.9239 92.6843
lradius 81.9971
lwrist 1.68536
lhand -28.6232 -8.94449
lfingers 7.12502
lthumb -1.98775 21.026
rfemur -0.544661 23.5496 25.546
rtibia 1.45759
rfoot -11.3545 -21.8076
rtoes -1.17089
lfemur 9.30687 -40.0572 -17.7599
ltibia -3.96062
lfoot -16.7459 49.0881
ltoes 8.56587
722
root 0.0193504 17.5771 7.92803 7.42706 -4.37663 -8.83789
lowerback 4.38478 4.65309 3.95097
upperback -8.54351 6.71711 0.0515867
thorax -11.1735 2.91893 -3.05
lowerneck -15.1516 0.366729 4.92488
upperneck 32.6678 -1.94865 3.0607
head 13.6024 0.216679 0.0561551
rclavicle 2.8625e-014 -1.59028e-014
rhumerus -3.70943 52.901 -97.5201
rradius 67.6135
rwrist -19.2966
rhand -8.49332 -66.8582
rfingers 7.12502
rthumb 17.4341 96.0963
lclavicle 2.8625e-014 -1.59028e-014
lhumerus -25.0531 -15.3161 92.725
lradius 82.1824
lwrist 1.23772
lhand -27.3492 -8.38057
lfingers 7.12502
lthumb -0.757342 21.5978
rfemur -0.543762 23.5718 25.5415
rtibia 1.42203
rfoot -11.3178 -21.7884
rtoes -1.35908
lfemur 9.38622 -40.2224 -17.8541
ltibia -3.96464
lfoot -16.9304 49.3049
ltoes 8.67863
723
root 0.0204988 17.5782 7.93421 7.51677 -4.36593 -8.84682
lowerback 4.39204 4.73914 3.9225
upperback -8.58759 6.83261 0.0411175
thorax -11.222 2.97473 -3.06341
lowerneck -15.2482 0.18683 4.63189
upperneck 32.2352 -2.23779 3.4264
head 13.4429 0.0912711 0.201309
rclavicle -6.67916e-014 -2.14687e-014
rhumerus -5.65919 52.1579 -98.5229
rradius 68.4553
rwrist -14.3862
rhand -5.89881 -65.4746
rfingers 7.12502
rthumb 19.9296 94.4727
lclavicle -6.67916e-014 -2.14687e-014
lhumerus -25.0343 -15.4786 92.7701
lradius 82.5386
lwrist 0.674219
lhand -25.2774 -7.34285
lfingers 7.12502
lthumb 1.24366 22.6333
rfemur -0.608715 23.5953 25.5118
rtibia 1.38828
rfoot -11.3314 -21.8289
rtoes -1.26031
lfemur 9.35243 -40.4645 -17.8791
ltibia -3.92827
lfoot -17.1616 49.5317
ltoes 8.88091
724
root 0.0222575 17.5805 7.94089 7.60725 -4.26204 -8.80462
lowerback 4.41054 4.70911 3.84326
upperback -8.65111 6.7968 0.125316
thorax -11.3283 2.96404 -2.93243
lowerneck -15.0015 0.180612 4.22054
upperneck 31.6216 -2.18675 3.7649
head 13.1347 0.0867619 0.405708
rclavicle -2.50469e-014 -2.22639e-014
rhumerus -7.1717 51.7956 -99.2313
rradius 69.3204
rwrist -12.2147
rhand -5.28206 -64.4364
rfingers 7.12502
rthumb 20.5224 93.3717
lclavicle -2.50469e-014 -2.22639e-014
lhumerus -25.2141 -15.312 92.7492
lradius 82.945
lwrist -0.315139
lhand -22.9591 -5.97313
lfingers 7.12502
lthumb 3.48264 23.9782
rfemur -0.664711 23.6193 25.414
rtibia 1.33658
rfoot -11.4354 -21.9389
rtoes -0.871338
lfemur 9.22991 -40.6543 -17.8789
ltibia -3.8935
lfoot -17.2816 49.5963
ltoes 9.03703
725
root 0.0246646 17.5826 7.94735 7.6911 -4.12971 -8.79083
lowerback 4.40842 4.58687 3.83167
upperback -8.72217 6.6459 0.248972
thorax -11.4361 2.89384 -2.77978
lowerneck -14.5532 0.41066 4.04986
upperneck 31.0255 -1.78695 3.92108
head 12.7902 0.239997 0.54787
rclavicle -3.57812e-015 -7.95139e-016
rhumerus -8.15502 51.6141 -99.7728
rradius 69.9572
rwrist -11.9292
rhand -5.83169 -63.7634
rfingers 7.12502
rthumb 19.9941 92.7548
lclavicle -3.57812e-015 -7.95139e-016
lhumerus -25.5715 -14.9506 92.6087
lradius 83.2741
lwrist -1.3485
lhand -21.1768 -4.90202
lfingers 7.12502
lthumb 5.20366 25.0141
rfemur -0.709163 23.5927 25.3553
rtibia 1.28734
rfoot -11.5014 -22.0109
rtoes -0.717158
lfemur 9.11947 -40.8049 -17.8335
ltibia -3.89139
lfoot -17.3735 49.5973
ltoes 9.08408
